<svg viewBox="-844.5 -530 1689 1060" width="1689" height="1060" style="background-color: rgb(255, 255, 255);" xmlns="http://www.w3.org/2000/svg"><path d="M-244.11680258215435,45.4388598747277L-269.12694762182247,43.75875231708782M-269.12694762182247,-98.7374529517752L-269.12694762182247,43.75875231708782M-269.12694762182247,43.75875231708782L-342.5367158793721,57.64769748845853" style="fill:none;stroke:rgb(0,0,0);stroke-width:1;stroke-linecap:round"></path><path d="M-244.11680258215438,45.4388598747277L-269.12694762182247,43.75875231708782L-269.12694762182247,-98.7374529517752z" style="fill:rgb(238,238,238); fill-opacity: 0.4"></path><path d="M-244.11680258215435,-97.05734539413533L-244.11680258215435,45.4388598747277M-244.11680258215435,45.4388598747277L-317.52657083970394,59.32780504609841M-244.11680258215435,-97.05734539413533L-269.12694762182247,-98.7374529517752M-269.12694762182247,-98.7374529517752L-342.5367158793721,-84.84850778040449" style="fill:none;stroke:rgb(0,0,0);stroke-width:1;stroke-linecap:round"></path><path d="M-244.11680258215438,-97.05734539413533L-244.11680258215438,45.4388598747277L-269.12694762182247,-98.7374529517752z" style="fill:rgb(238,238,238); fill-opacity: 0.4"></path><path d="M-253.8716329509924,-22.841953791904125L-278.88177799066057,-24.522061349543996M-278.88177799066057,-53.48659986566987L-278.88177799066057,-24.522061349543996M-278.88177799066057,-24.522061349543996L-293.8034389299381,-21.698920293924377M-253.8716329509924,-51.80649230803L-278.88177799066057,-53.48659986566987M-278.88177799066057,-53.48659986566987L-293.8034389299381,-50.66345881005025" style="fill:none;stroke:rgb(0,0,0);stroke-width:1;stroke-linecap:round"></path><path d="M-253.87163295099242,-22.841953791904125L-278.88177799066057,-24.522061349543996L-278.88177799066057,-53.48659986566987z" style="fill:rgb(153,221,255); fill-opacity: 0.4"></path><path d="M-244.11680258215435,-97.05734539413533L-317.52657083970394,-83.16840022276462" style="fill:none;stroke:rgb(0,0,0);stroke-width:1;stroke-linecap:round"></path><path d="M-278.88177799066057,-53.48659986566987L-278.88177799066057,-24.522061349543996L-293.8034389299381,-50.66345881005026zM-253.87163295099242,-51.80649230803L-253.87163295099242,-22.841953791904125L-278.88177799066057,-53.48659986566987zM-293.8034389299381,-21.698920293924377L-278.88177799066057,-24.522061349543996L-253.87163295099242,-22.841953791904125z" style="fill:rgb(153,221,255); fill-opacity: 0.4"></path><path d="M-253.8716329509924,-51.80649230803L-253.8716329509924,-22.841953791904125M-253.8716329509924,-22.841953791904125L-268.79329389027,-20.018812736284506M-253.8716323888576,-51.80649236595787L-253.8716323888576,-22.841953535937265M-253.8716323888576,-22.841953535937265L-268.79329203446196,-20.018812725077385M-253.8716323888576,-22.841953535937265L-220.8594521164893,-28.430156868298123" style="fill:none;stroke:rgb(0,0,0);stroke-width:1;stroke-linecap:round"></path><path d="M-278.88177799066057,-24.522061349543996L-293.8034389299381,-21.698920293924377L-293.8034389299381,-50.66345881005026z" style="fill:rgb(153,221,255); fill-opacity: 0.4"></path><path d="M-253.8716329509924,-51.80649230803L-268.79329389027,-48.98335125241039M-253.8716323888576,-51.80649236595787L-268.79329203446196,-48.98335155509799M-253.8716323888576,-51.80649236595787L-220.8594521164893,-28.430156868298123" style="fill:none;stroke:rgb(0,0,0);stroke-width:1;stroke-linecap:round"></path><path d="M-268.79329389027004,-48.98335125241039L-253.87163295099242,-51.80649230803L-278.88177799066057,-53.48659986566987z" style="fill:rgb(153,221,255); fill-opacity: 0.4"></path><path d="M-342.536715879372,57.64769748845854L-269.12694762182247,43.75875231708782L-244.11680258215438,45.4388598747277z" style="fill:rgb(238,238,238); fill-opacity: 0.4"></path><path d="M-253.87163317675603,-51.80649232319613L-253.87163317675603,-22.841953807070258L-268.7932941160336,-20.01881275145064z" style="fill:rgb(255,187,187); fill-opacity: 0.4"></path><path d="M-268.79329389027004,-20.018812736284506L-253.87163295099242,-22.841953791904125L-253.87163295099242,-51.80649230803zM-293.8034389299381,-50.66345881005026L-268.79329389027004,-48.98335125241039L-278.88177799066057,-53.48659986566987z" style="fill:rgb(153,221,255); fill-opacity: 0.4"></path><path d="M-293.8034389299381,-50.66345881005025L-293.8034389299381,-21.698920293924377M-293.8034389299381,-21.698920293924377L-268.79329389027,-20.018812736284506" style="fill:none;stroke:rgb(0,0,0);stroke-width:1;stroke-linecap:round"></path><path d="M-268.79329389027004,-20.018812736284506L-293.8034389299381,-21.698920293924377L-253.87163295099242,-22.841953791904125z" style="fill:rgb(153,221,255); fill-opacity: 0.4"></path><path d="M-269.12694762182247,-98.7374529517752L-269.12694762182247,43.75875231708782L-342.536715879372,-84.84850778040449z" style="fill:rgb(238,238,238); fill-opacity: 0.4"></path><path d="M-293.8034389299381,-50.66345881005025L-268.79329389027,-48.98335125241039" style="fill:none;stroke:rgb(0,0,0);stroke-width:1;stroke-linecap:round"></path><path d="M-293.8034389299381,-50.66345881005026L-293.8034389299381,-21.698920293924377L-268.79329389027004,-48.98335125241039z" style="fill:rgb(153,221,255); fill-opacity: 0.4"></path><path d="M-253.87163317675603,-22.841953807070258L-253.87163317675603,-51.80649232319613L-220.85945432043684,-28.430156761499063zM-253.87163317675603,-51.80649232319613L-268.7932941160336,-20.01881275145064L-268.7932941160336,-48.983351267576516z" style="fill:rgb(255,187,187); fill-opacity: 0.4"></path><path d="M-268.79329389027004,-48.98335125241039L-268.79329389027004,-20.018812736284506L-253.87163295099242,-51.80649230803z" style="fill:rgb(153,221,255); fill-opacity: 0.4"></path><path d="M-104.20285910735839,38.79103809366271L-208.1112261727371,31.81078138057023M-208.1112261727371,-73.70791121839206L-208.1112261727371,31.81078138057023M-208.1112261727371,31.81078138057023L-262.471289698036,42.095569900352274" style="fill:none;stroke:rgb(0,0,0);stroke-width:1;stroke-linecap:round"></path><path d="M-293.8034389299381,-21.698920293924377L-268.79329389027004,-20.018812736284506L-268.79329389027004,-48.98335125241039z" style="fill:rgb(153,221,255); fill-opacity: 0.4"></path><path d="M-317.52657083970394,59.32780504609841L-244.11680258215438,45.4388598747277L-244.11680258215438,-97.05734539413533z" style="fill:rgb(238,238,238); fill-opacity: 0.4"></path><path d="M-268.7932941160336,-20.01881275145064L-253.87163317675603,-22.841953807070258L-220.85945432043684,-28.430156761499063z" style="fill:rgb(255,187,187); fill-opacity: 0.4"></path><path d="M-268.79329389027,-48.98335125241039L-268.79329389027,-20.018812736284506M-268.79329203446196,-20.018812725077385L-268.79329203446196,-48.98335155509799M-268.79329203446196,-20.018812725077385L-220.8594521164893,-28.430156868298123" style="fill:none;stroke:rgb(0,0,0);stroke-width:1;stroke-linecap:round"></path><path d="M-253.87163317675603,-51.80649232319613L-268.7932941160336,-48.983351267576516L-220.85945432043684,-28.430156761499063z" style="fill:rgb(255,187,187); fill-opacity: 0.4"></path><path d="M-317.52657083970394,-83.16840022276462L-244.11680258215438,-97.05734539413533L-269.12694762182247,-98.7374529517752z" style="fill:rgb(238,238,238); fill-opacity: 0.4"></path><path d="M-268.79329203446196,-48.98335155509799L-220.8594521164893,-28.430156868298123M-104.20285910735839,-66.72765450529957L-208.1112261727371,-73.70791121839206M-208.1112261727371,-73.70791121839206L-262.471289698036,-63.423122698610015" style="fill:none;stroke:rgb(0,0,0);stroke-width:1;stroke-linecap:round"></path><path d="M-268.7932941160336,-48.983351267576516L-268.7932941160336,-20.01881275145064L-220.85945432043684,-28.430156761499063z" style="fill:rgb(255,187,187); fill-opacity: 0.4"></path><path d="M-104.20285910735839,38.79103809366271L-208.11122617273713,31.810781380570226L-208.11122617273713,-73.70791121839206zM-269.12694762182247,43.75875231708782L-342.536715879372,57.64769748845854L-342.536715879372,-84.84850778040449zM-317.52657083970394,59.32780504609841L-342.536715879372,57.64769748845854L-244.11680258215438,45.4388598747277zM-208.11122617273713,-73.70791121839206L-208.11122617273713,31.810781380570226L-262.47128969803606,-63.423122698610015zM-342.536715879372,-84.84850778040449L-317.52657083970394,-83.16840022276462L-269.12694762182247,-98.7374529517752zM-317.52657083970394,-83.16840022276462L-317.52657083970394,59.32780504609841L-244.11680258215438,-97.05734539413533zM-104.20285910735839,-66.72765450529957L-104.20285910735839,38.79103809366271L-208.11122617273713,-73.70791121839206zM-262.47128969803606,42.095569900352274L-208.11122617273713,31.810781380570226L-104.20285910735839,38.79103809366271z" style="fill:rgb(238,238,238); fill-opacity: 0.4"></path><path d="M-104.20285910735839,-66.72765450529957L-104.20285910735839,38.79103809366271M-104.20285910735839,38.79103809366271L-158.56292263265735,49.075826613444754M-342.5367158793721,-84.84850778040449L-342.5367158793721,57.64769748845853M-342.5367158793721,57.64769748845853L-317.52657083970394,59.32780504609841" style="fill:none;stroke:rgb(0,0,0);stroke-width:1;stroke-linecap:round"></path><path d="M-208.11122617273713,31.810781380570226L-262.47128969803606,42.095569900352274L-262.47128969803606,-63.423122698610015z" style="fill:rgb(238,238,238); fill-opacity: 0.4"></path><path d="M-144.31366480046051,-3.1505977943406838L-248.2220318658392,-10.13085450743317M-248.2220318658392,-23.296553832944934L-248.2220318658392,-10.13085450743317M-248.2220318658392,-10.13085450743317L-255.00460502005626,-8.847608573060619M-104.20285910735839,-66.72765450529957L-158.56292263265735,-56.442865985517535M-144.31366480046051,-16.316297119852447L-248.2220318658392,-23.296553832944934M-248.2220318658392,-23.296553832944934L-255.00460502005626,-22.01330789857238" style="fill:none;stroke:rgb(0,0,0);stroke-width:1;stroke-linecap:round"></path><path d="M-248.22203186583923,-23.296553832944934L-248.22203186583923,-10.130854507433172L-255.00460502005632,-22.01330789857238z" style="fill:rgb(153,221,255); fill-opacity: 0.4"></path><path d="M-317.52657083970394,-83.16840022276462L-317.52657083970394,59.32780504609841" style="fill:none;stroke:rgb(0,0,0);stroke-width:1;stroke-linecap:round"></path><path d="M-342.536715879372,57.64769748845854L-317.52657083970394,59.32780504609841L-317.52657083970394,-83.16840022276462zM-342.536715879372,-84.84850778040449L-342.536715879372,57.64769748845854L-317.52657083970394,-83.16840022276462z" style="fill:rgb(238,238,238); fill-opacity: 0.4"></path><path d="M-342.5367158793721,-84.84850778040449L-317.52657083970394,-83.16840022276462" style="fill:none;stroke:rgb(0,0,0);stroke-width:1;stroke-linecap:round"></path><path d="M-248.22203186583923,-10.130854507433172L-255.00460502005632,-8.847608573060619L-255.00460502005632,-22.01330789857238z" style="fill:rgb(153,221,255); fill-opacity: 0.4"></path><path d="M-158.56292263265738,-56.442865985517535L-104.20285910735839,-66.72765450529957L-208.11122617273713,-73.70791121839206z" style="fill:rgb(238,238,238); fill-opacity: 0.4"></path><path d="M-255.00460502005626,-22.01330789857238L-255.00460502005626,-8.847608573060619M-255.00460502005626,-8.847608573060619L-151.09623795467758,-1.867351859968131M-255.00460502005626,-22.01330789857238L-151.09623795467758,-15.033051185479893M-262.471289698036,-63.423122698610015L-262.471289698036,42.095569900352274M-262.471289698036,42.095569900352274L-158.56292263265735,49.075826613444754" style="fill:none;stroke:rgb(0,0,0);stroke-width:1;stroke-linecap:round"></path><path d="M-262.47128969803606,-63.423122698610015L-158.56292263265738,-56.442865985517535L-208.11122617273713,-73.70791121839206z" style="fill:rgb(238,238,238); fill-opacity: 0.4"></path><path d="M-144.31366480046054,-3.1505977943406847L-248.22203186583923,-10.130854507433172L-248.22203186583923,-23.296553832944934z" style="fill:rgb(153,221,255); fill-opacity: 0.4"></path><path d="M-158.56292263265738,49.075826613444754L-104.20285910735839,38.79103809366271L-104.20285910735839,-66.72765450529957z" style="fill:rgb(238,238,238); fill-opacity: 0.4"></path><path d="M-255.00460502005632,-8.847608573060619L-248.22203186583923,-10.130854507433172L-144.31366480046054,-3.1505977943406847z" style="fill:rgb(153,221,255); fill-opacity: 0.4"></path><path d="M62.73894889745065,41.87555400663702L-63.49820634368624,33.39531535791283M-63.49820634368624,-53.388683127522825L-63.49820634368624,33.39531535791283M-63.49820634368624,33.39531535791283L-108.20671774059606,41.85405427269511" style="fill:none;stroke:rgb(0,0,0);stroke-width:1;stroke-linecap:round"></path><path d="M-158.56292263265738,49.075826613444754L-262.47128969803606,42.095569900352274L-104.20285910735839,38.79103809366271z" style="fill:rgb(238,238,238); fill-opacity: 0.4"></path><path d="M-255.00460502005632,-22.01330789857238L-151.09623795467758,-15.033051185479893L-248.22203186583923,-23.296553832944934z" style="fill:rgb(153,221,255); fill-opacity: 0.4"></path><path d="M-262.471289698036,-63.423122698610015L-158.56292263265735,-56.442865985517535" style="fill:none;stroke:rgb(0,0,0);stroke-width:1;stroke-linecap:round"></path><path d="M-255.00460502005632,-22.01330789857238L-255.00460502005632,-8.847608573060619L-151.09623795467758,-15.033051185479893z" style="fill:rgb(153,221,255); fill-opacity: 0.4"></path><path d="M62.73894889745065,-44.90844447879864L-63.49820634368624,-53.388683127522825M-63.49820634368624,-53.388683127522825L-108.20671774059606,-44.929944212740544" style="fill:none;stroke:rgb(0,0,0);stroke-width:1;stroke-linecap:round"></path><path d="M-144.31366480046054,-16.316297119852447L-144.31366480046054,-3.1505977943406847L-248.22203186583923,-23.296553832944934zM-151.09623795467758,-15.033051185479893L-144.31366480046054,-16.316297119852447L-248.22203186583923,-23.296553832944934z" style="fill:rgb(153,221,255); fill-opacity: 0.4"></path><path d="M-262.47128969803606,-63.423122698610015L-262.47128969803606,42.095569900352274L-158.56292263265738,-56.442865985517535z" style="fill:rgb(238,238,238); fill-opacity: 0.4"></path><path d="M-151.09623795467758,-1.867351859968131L-255.00460502005632,-8.847608573060619L-144.31366480046054,-3.1505977943406847z" style="fill:rgb(153,221,255); fill-opacity: 0.4"></path><path d="M49.55240995405639,30.783839500572462L-76.6847452870805,22.303600851848266M-76.6847452870805,14.404181256541213L-76.6847452870805,22.303600851848266M-76.6847452870805,22.303600851848266L-80.75428917961075,23.0735484124718M49.55240995405639,22.884419905265403L-76.6847452870805,14.404181256541213M-76.6847452870805,14.404181256541213L-80.75428917961075,15.174128817164743" style="fill:none;stroke:rgb(0,0,0);stroke-width:1;stroke-linecap:round"></path><path d="M-76.6847452870805,14.404181256541209L-76.6847452870805,22.303600851848266L-80.75428917961075,15.174128817164743zM-255.00460502005632,-8.847608573060619L-151.09623795467758,-1.867351859968131L-151.09623795467758,-15.033051185479893z" style="fill:rgb(153,221,255); fill-opacity: 0.4"></path><path d="M62.73894889745063,41.875554006637024L-63.49820634368624,33.39531535791283L-63.49820634368624,-53.388683127522825z" style="fill:rgb(238,238,238); fill-opacity: 0.4"></path><path d="M-76.6847452870805,22.303600851848266L-80.75428917961075,23.0735484124718L-80.75428917961075,15.174128817164743z" style="fill:rgb(153,221,255); fill-opacity: 0.4"></path><path d="M-80.75428917961075,15.174128817164743L-80.75428917961075,23.0735484124718M-80.75428917961075,23.0735484124718L45.48286606152614,31.55378706119599M-80.75428917961075,15.174128817164743L45.48286606152614,23.654367465888935" style="fill:none;stroke:rgb(0,0,0);stroke-width:1;stroke-linecap:round"></path><path d="M-63.49820634368624,-53.388683127522825L-63.49820634368624,33.39531535791283L-108.20671774059606,-44.929944212740544zM-158.56292263265738,-56.442865985517535L-158.56292263265738,49.075826613444754L-104.20285910735839,-66.72765450529957z" style="fill:rgb(238,238,238); fill-opacity: 0.4"></path><path d="M-144.31366480046051,-16.316297119852447L-144.31366480046051,-3.1505977943406838M-144.31366480046051,-3.1505977943406838L-151.09623795467758,-1.867351859968131M-144.31366315280886,-16.31629672850662L-144.31366315280886,-3.1505977168895907M-144.31366315280886,-3.1505977168895907L-151.09623630702592,-1.8673517825170378M-144.31366315280886,-3.1505977168895907L-99.27656184774555,-5.986012593185758M-144.31366480046051,-16.316297119852447L-151.09623795467758,-15.033051185479893M-144.31366315280886,-16.31629672850662L-151.09623630702592,-15.033050794134068M-144.31366315280886,-16.31629672850662L-99.27656184774555,-5.986012593185758" style="fill:none;stroke:rgb(0,0,0);stroke-width:1;stroke-linecap:round"></path><path d="M-262.47128969803606,42.095569900352274L-158.56292263265738,49.075826613444754L-158.56292263265738,-56.442865985517535z" style="fill:rgb(238,238,238); fill-opacity: 0.4"></path><path d="M-144.31366513462382,-16.31629714230055L-144.31366513462382,-3.150597816788786L-151.09623828884088,-1.867351882416232z" style="fill:rgb(255,187,187); fill-opacity: 0.4"></path><path d="M-151.09623795467758,-1.867351859968131L-144.31366480046054,-3.1505977943406847L-144.31366480046054,-16.316297119852447z" style="fill:rgb(153,221,255); fill-opacity: 0.4"></path><path d="M-144.31366513462382,-16.31629714230055L-151.09623828884088,-1.867351882416232L-151.09623828884088,-15.033051207927993z" style="fill:rgb(255,187,187); fill-opacity: 0.4"></path><path d="M-151.09623795467758,-15.033051185479893L-151.09623795467758,-1.867351859968131L-144.31366480046054,-16.316297119852447z" style="fill:rgb(153,221,255); fill-opacity: 0.4"></path><path d="M-144.31366513462382,-3.150597816788786L-144.31366513462382,-16.31629714230055L-99.27656369986818,-5.986012920081661z" style="fill:rgb(255,187,187); fill-opacity: 0.4"></path><path d="M-151.09623795467758,-15.033051185479893L-151.09623795467758,-1.867351859968131M-151.09623630702592,-1.8673517825170378L-151.09623630702592,-15.033050794134068M-151.09623630702592,-1.8673517825170378L-99.27656184774555,-5.986012593185758" style="fill:none;stroke:rgb(0,0,0);stroke-width:1;stroke-linecap:round"></path><path d="M49.552409954056365,30.78383950057246L-76.6847452870805,22.303600851848266L-76.6847452870805,14.404181256541209z" style="fill:rgb(153,221,255); fill-opacity: 0.4"></path><path d="M-151.09623630702592,-15.033050794134068L-99.27656184774555,-5.986012593185758" style="fill:none;stroke:rgb(0,0,0);stroke-width:1;stroke-linecap:round"></path><path d="M-151.09623828884088,-1.867351882416232L-144.31366513462382,-3.150597816788786L-99.27656369986818,-5.986012920081661z" style="fill:rgb(255,187,187); fill-opacity: 0.4"></path><path d="M-108.20671774059606,41.85405427269511L-63.49820634368624,33.39531535791283L62.73894889745063,41.875554006637024z" style="fill:rgb(238,238,238); fill-opacity: 0.4"></path><path d="M-144.31366513462382,-16.31629714230055L-151.09623828884088,-15.033051207927993L-99.27656369986818,-5.986012920081661z" style="fill:rgb(255,187,187); fill-opacity: 0.4"></path><path d="M-80.75428917961075,23.0735484124718L-76.6847452870805,22.303600851848266L49.552409954056365,30.78383950057246z" style="fill:rgb(153,221,255); fill-opacity: 0.4"></path><path d="M-63.49820634368624,33.39531535791283L-108.20671774059606,41.85405427269511L-108.20671774059606,-44.929944212740544z" style="fill:rgb(238,238,238); fill-opacity: 0.4"></path><path d="M-80.75428917961075,15.174128817164743L45.482866061526124,23.65436746588893L-76.6847452870805,14.404181256541209z" style="fill:rgb(153,221,255); fill-opacity: 0.4"></path><path d="M-151.09623828884088,-15.033051207927993L-151.09623828884088,-1.867351882416232L-99.27656369986818,-5.986012920081661z" style="fill:rgb(255,187,187); fill-opacity: 0.4"></path><path d="M-158.56292263265735,-56.442865985517535L-158.56292263265735,49.075826613444754" style="fill:none;stroke:rgb(0,0,0);stroke-width:1;stroke-linecap:round"></path><path d="M-80.75428917961075,15.174128817164743L-80.75428917961075,23.0735484124718L45.482866061526124,23.65436746588893z" style="fill:rgb(153,221,255); fill-opacity: 0.4"></path><path d="M62.73894889745063,-44.908444478798636L62.73894889745063,41.875554006637024L-63.49820634368624,-53.388683127522825z" style="fill:rgb(238,238,238); fill-opacity: 0.4"></path><path d="M49.552409954056365,22.8844199052654L49.552409954056365,30.78383950057246L-76.6847452870805,14.404181256541209z" style="fill:rgb(153,221,255); fill-opacity: 0.4"></path><path d="M-108.20671774059606,-44.929944212740544L-108.20671774059606,41.85405427269511M-108.20671774059606,41.85405427269511L18.03043750054081,50.3342929214193M62.73894889745065,-44.90844447879864L62.73894889745065,41.87555400663702M62.73894889745065,41.87555400663702L18.03043750054081,50.3342929214193" style="fill:none;stroke:rgb(0,0,0);stroke-width:1;stroke-linecap:round"></path><path d="M45.482866061526124,23.65436746588893L49.552409954056365,22.8844199052654L-76.6847452870805,14.404181256541209zM45.482866061526124,31.55378706119599L-80.75428917961075,23.0735484124718L49.552409954056365,30.78383950057246zM-80.75428917961075,23.0735484124718L45.482866061526124,31.55378706119599L45.482866061526124,23.65436746588893z" style="fill:rgb(153,221,255); fill-opacity: 0.4"></path><path d="M-108.20671774059606,-44.929944212740544L18.03043750054081,-36.44970556401636" style="fill:none;stroke:rgb(0,0,0);stroke-width:1;stroke-linecap:round"></path><path d="M-108.20671774059606,-44.929944212740544L18.030437500540806,-36.449705564016355L-63.49820634368624,-53.388683127522825zM18.030437500540806,-36.449705564016355L62.73894889745063,-44.908444478798636L-63.49820634368624,-53.388683127522825z" style="fill:rgb(238,238,238); fill-opacity: 0.4"></path><path d="M62.73894889745065,-44.90844447879864L18.03043750054081,-36.44970556401636M49.552408421062225,22.88442012088009L49.552408421062225,30.78383971618715M49.552408421062225,30.78383971618715L45.4828642051137,31.553787338000618M49.552408421062225,30.78383971618715L91.46626234016074,24.84319313805218M49.55240995405639,22.884419905265403L49.55240995405639,30.783839500572462M49.55240995405639,30.783839500572462L45.48286606152614,31.55378706119599M49.552408421062225,22.88442012088009L45.4828642051137,23.654367742693555M49.552408421062225,22.88442012088009L91.46626234016074,24.84319313805218M49.55240995405639,22.884419905265403L45.48286606152614,23.654367465888935" style="fill:none;stroke:rgb(0,0,0);stroke-width:1;stroke-linecap:round"></path><path d="M18.030437500540806,50.334292921419305L-108.20671774059606,41.85405427269511L62.73894889745063,41.875554006637024z" style="fill:rgb(238,238,238); fill-opacity: 0.4"></path><path d="M49.55240978061691,22.88441989361425L49.55240978061691,30.78383948892131L45.48286588808667,31.553787049544844z" style="fill:rgb(255,187,187); fill-opacity: 0.4"></path><path d="M45.482866061526124,31.55378706119599L49.552409954056365,30.78383950057246L49.552409954056365,22.8844199052654z" style="fill:rgb(153,221,255); fill-opacity: 0.4"></path><path d="M18.030437500540806,50.334292921419305L62.73894889745063,41.875554006637024L62.73894889745063,-44.908444478798636z" style="fill:rgb(238,238,238); fill-opacity: 0.4"></path><path d="M49.55240978061691,22.88441989361425L45.48286588808667,31.553787049544844L45.48286588808667,23.654367454237786z" style="fill:rgb(255,187,187); fill-opacity: 0.4"></path><path d="M45.482866061526124,23.65436746588893L45.482866061526124,31.55378706119599L49.552409954056365,22.8844199052654z" style="fill:rgb(153,221,255); fill-opacity: 0.4"></path><path d="M45.4828642051137,31.553787338000618L45.4828642051137,23.654367742693555M45.4828642051137,31.553787338000618L91.46626234016074,24.84319313805218M45.48286606152614,23.654367465888935L45.48286606152614,31.55378706119599M45.4828642051137,23.654367742693555L91.46626234016074,24.84319313805218" style="fill:none;stroke:rgb(0,0,0);stroke-width:1;stroke-linecap:round"></path><path d="M-108.20671774059606,-44.929944212740544L-108.20671774059606,41.85405427269511L18.030437500540806,-36.449705564016355z" style="fill:rgb(238,238,238); fill-opacity: 0.4"></path><path d="M49.55240978061691,30.78383948892131L49.55240978061691,22.88441989361425L91.46625943120155,24.843192448320746z" style="fill:rgb(255,187,187); fill-opacity: 0.4"></path><path d="M238.77973274654934,45.349731865829085L103.31208121300652,36.24941578224634M103.31208121300652,-31.289289839499606L103.31208121300652,36.24941578224634M103.31208121300652,36.24941578224634L68.51816709611876,42.83233760501258" style="fill:none;stroke:rgb(0,0,0);stroke-width:1;stroke-linecap:round"></path><path d="M45.48286588808667,31.553787049544844L49.55240978061691,30.78383948892131L91.46625943120155,24.843192448320746zM49.55240978061691,22.88441989361425L45.48286588808667,23.654367454237786L91.46625943120155,24.843192448320746zM45.48286588808667,23.654367454237786L45.48286588808667,31.553787049544844L91.46625943120155,24.843192448320746z" style="fill:rgb(255,187,187); fill-opacity: 0.4"></path><path d="M238.77973274654934,-22.18897375591686L103.31208121300652,-31.289289839499606M103.31208121300652,-31.289289839499606L68.51816709611876,-24.70636801673336" style="fill:none;stroke:rgb(0,0,0);stroke-width:1;stroke-linecap:round"></path><path d="M-108.20671774059606,41.85405427269511L18.030437500540806,50.334292921419305L18.030437500540806,-36.449705564016355z" style="fill:rgb(238,238,238); fill-opacity: 0.4"></path><path d="M230.90813709909747,1.1506485903277592L95.44048556555467,-7.949667493254993M95.44048556555467,-15.84908708856205L95.44048556555467,-7.949667493254993M95.44048556555467,-7.949667493254993L91.37094167302443,-7.179719932631461M230.90813709909747,-6.748771004979298L95.44048556555467,-15.84908708856205M95.44048556555467,-15.84908708856205L91.37094167302443,-15.079139527938517" style="fill:none;stroke:rgb(0,0,0);stroke-width:1;stroke-linecap:round"></path><path d="M18.030437500540806,-36.449705564016355L18.030437500540806,50.334292921419305L62.73894889745063,-44.908444478798636z" style="fill:rgb(238,238,238); fill-opacity: 0.4"></path><path d="M95.44048556555467,-15.849087088562051L95.44048556555467,-7.949667493254995L91.37094167302442,-15.079139527938517zM95.44048556555467,-7.949667493254995L91.37094167302442,-7.179719932631463L91.37094167302442,-15.079139527938517z" style="fill:rgb(153,221,255); fill-opacity: 0.4"></path><path d="M103.31208121300652,-31.289289839499613L103.31208121300652,36.24941578224634L68.51816709611876,-24.706368016733368z" style="fill:rgb(238,238,238); fill-opacity: 0.4"></path><path d="M91.37094167302443,-15.079139527938517L91.37094167302443,-7.179719932631461M91.37094167302443,-7.179719932631461L226.83859320656725,1.920596150951291M91.37094167302443,-15.079139527938517L226.83859320656725,-5.978823444355767" style="fill:none;stroke:rgb(0,0,0);stroke-width:1;stroke-linecap:round"></path><path d="M238.77973274654929,45.349731865829085L103.31208121300652,36.24941578224634L103.31208121300652,-31.289289839499613z" style="fill:rgb(238,238,238); fill-opacity: 0.4"></path><path d="M18.03043750054081,-36.44970556401636L18.03043750054081,50.3342929214193" style="fill:none;stroke:rgb(0,0,0);stroke-width:1;stroke-linecap:round"></path><path d="M103.31208121300652,36.24941578224634L68.51816709611876,42.83233760501258L68.51816709611876,-24.706368016733368z" style="fill:rgb(238,238,238); fill-opacity: 0.4"></path><path d="M230.90813709909744,1.1506485903277572L95.44048556555467,-7.949667493254995L95.44048556555467,-15.849087088562051z" style="fill:rgb(153,221,255); fill-opacity: 0.4"></path><path d="M68.51816709611876,42.83233760501258L103.31208121300652,36.24941578224634L238.77973274654929,45.349731865829085z" style="fill:rgb(238,238,238); fill-opacity: 0.4"></path><path d="M91.37094167302442,-7.179719932631463L95.44048556555467,-7.949667493254995L230.90813709909744,1.1506485903277572zM91.37094167302442,-15.079139527938517L226.83859320656717,-5.978823444355767L95.44048556555467,-15.849087088562051zM91.37094167302442,-15.079139527938517L91.37094167302442,-7.179719932631463L226.83859320656717,-5.978823444355767z" style="fill:rgb(153,221,255); fill-opacity: 0.4"></path><path d="M68.51816709611876,-24.70636801673336L68.51816709611876,42.83233760501258M68.51816709611876,42.83233760501258L203.98581862966157,51.93265368859533" style="fill:none;stroke:rgb(0,0,0);stroke-width:1;stroke-linecap:round"></path><path d="M238.77973274654929,-22.18897375591686L238.77973274654929,45.349731865829085L103.31208121300652,-31.289289839499613z" style="fill:rgb(238,238,238); fill-opacity: 0.4"></path><path d="M68.51816709611876,-24.70636801673336L203.98581862966157,-15.606051933150614" style="fill:none;stroke:rgb(0,0,0);stroke-width:1;stroke-linecap:round"></path><path d="M230.90813709909744,-6.7487710049793L230.90813709909744,1.1506485903277572L95.44048556555467,-15.849087088562051z" style="fill:rgb(153,221,255); fill-opacity: 0.4"></path><path d="M68.51816709611876,-24.706368016733368L203.98581862966154,-15.606051933150614L103.31208121300652,-31.289289839499613z" style="fill:rgb(238,238,238); fill-opacity: 0.4"></path><path d="M226.83859320656717,-5.978823444355767L230.90813709909744,-6.7487710049793L95.44048556555467,-15.849087088562051zM226.83859320656717,1.9205961509512892L91.37094167302442,-7.179719932631463L230.90813709909744,1.1506485903277572zM91.37094167302442,-7.179719932631463L226.83859320656717,1.9205961509512892L226.83859320656717,-5.978823444355767z" style="fill:rgb(153,221,255); fill-opacity: 0.4"></path><path d="M238.77973274654934,-22.18897375591686L238.77973274654934,45.349731865829085M238.77973274654934,45.349731865829085L203.98581862966157,51.93265368859533" style="fill:none;stroke:rgb(0,0,0);stroke-width:1;stroke-linecap:round"></path><path d="M203.98581862966154,-15.606051933150614L238.77973274654929,-22.18897375591686L103.31208121300652,-31.289289839499613z" style="fill:rgb(238,238,238); fill-opacity: 0.4"></path><path d="M238.77973274654934,-22.18897375591686L203.98581862966157,-15.606051933150614" style="fill:none;stroke:rgb(0,0,0);stroke-width:1;stroke-linecap:round"></path><path d="M68.51816709611876,-24.706368016733368L68.51816709611876,42.83233760501258L203.98581862966154,-15.606051933150614zM203.98581862966154,51.93265368859533L68.51816709611876,42.83233760501258L238.77973274654929,45.349731865829085z" style="fill:rgb(238,238,238); fill-opacity: 0.4"></path><path d="M230.90813709909747,-6.748771004979298L230.90813709909747,1.1506485903277592M230.90813709909747,1.1506485903277592L226.83859320656725,1.920596150951291M230.90814667129487,-6.74876979753695L230.90814667129487,1.1506497977701056M230.90814667129487,1.1506497977701056L226.83860277876465,1.9205973583936373M230.90814667129487,1.1506497977701056L274.4038040604993,0.6445133330411454M230.90813709909747,-6.748771004979298L226.83859320656725,-5.978823444355767M230.90814667129487,-6.74876979753695L226.83860277876465,-5.97882223691342M230.90814667129487,-6.74876979753695L274.4038040604993,0.6445133330411454" style="fill:none;stroke:rgb(0,0,0);stroke-width:1;stroke-linecap:round"></path><path d="M226.83859320656717,1.9205961509512892L230.90813709909744,1.1506485903277572L230.90813709909744,-6.7487710049793z" style="fill:rgb(153,221,255); fill-opacity: 0.4"></path><path d="M230.90813889263438,-6.748770884494798L230.90813889263438,1.1506487108122594L226.8385950001041,1.9205962714357911z" style="fill:rgb(255,187,187); fill-opacity: 0.4"></path><path d="M203.98581862966154,51.93265368859533L238.77973274654929,45.349731865829085L238.77973274654929,-22.18897375591686z" style="fill:rgb(238,238,238); fill-opacity: 0.4"></path><path d="M226.83859320656717,-5.978823444355767L226.83859320656717,1.9205961509512892L230.90813709909744,-6.7487710049793z" style="fill:rgb(153,221,255); fill-opacity: 0.4"></path><path d="M230.90813889263438,-6.748770884494798L226.8385950001041,1.9205962714357911L226.8385950001041,-5.978823323871264z" style="fill:rgb(255,187,187); fill-opacity: 0.4"></path><path d="M226.83859320656725,-5.978823444355767L226.83859320656725,1.920596150951291M226.83860277876465,1.9205973583936373L226.83860277876465,-5.97882223691342M226.83860277876465,1.9205973583936373L274.4038040604993,0.6445133330411454M226.83860277876465,-5.97882223691342L274.4038040604993,0.6445133330411454M419.77781720263545,57.508647742993645L284.3101656690926,48.4083316594109M284.3101656690926,-19.130373962335046L284.3101656690926,48.4083316594109M284.3101656690926,48.4083316594109L249.5162515522048,54.99125348217714" style="fill:none;stroke:rgb(0,0,0);stroke-width:1;stroke-linecap:round"></path><path d="M230.90813889263438,1.1506487108122594L230.90813889263438,-6.748770884494798L274.40379628183865,0.6445122460832993zM226.8385950001041,1.9205962714357911L230.90813889263438,1.1506487108122594L274.40379628183865,0.6445122460832993zM230.90813889263438,-6.748770884494798L226.8385950001041,-5.978823323871264L274.40379628183865,0.6445122460832993zM226.8385950001041,-5.978823323871264L226.8385950001041,1.9205962714357911L274.40379628183865,0.6445122460832993z" style="fill:rgb(255,187,187); fill-opacity: 0.4"></path><path d="M68.51816709611876,42.83233760501258L203.98581862966154,51.93265368859533L203.98581862966154,-15.606051933150614z" style="fill:rgb(238,238,238); fill-opacity: 0.4"></path><path d="M419.77781720263545,-10.030057878752299L284.3101656690926,-19.130373962335046M284.3101656690926,-19.130373962335046L249.5162515522048,-12.547452139568803" style="fill:none;stroke:rgb(0,0,0);stroke-width:1;stroke-linecap:round"></path><path d="M203.98581862966154,-15.606051933150614L203.98581862966154,51.93265368859533L238.77973274654929,-22.18897375591686zM284.3101656690926,-19.13037396233505L284.3101656690926,48.4083316594109L249.5162515522048,-12.547452139568806zM419.77781720263545,57.50864774299365L284.3101656690926,48.4083316594109L284.3101656690926,-19.13037396233505z" style="fill:rgb(238,238,238); fill-opacity: 0.4"></path><path d="M203.98581862966157,-15.606051933150614L203.98581862966157,51.93265368859533M398.5247021675443,33.911488920414094L263.05705063400154,24.811172836831346M263.05705063400154,16.911753241524288L263.05705063400154,24.811172836831346M263.05705063400154,24.811172836831346L258.9875067414713,25.58112039745488M398.5247021675443,26.012069325107042L263.05705063400154,16.911753241524288M263.05705063400154,16.911753241524288L258.9875067414713,17.681700802147823" style="fill:none;stroke:rgb(0,0,0);stroke-width:1;stroke-linecap:round"></path><path d="M284.3101656690926,48.4083316594109L249.5162515522048,54.99125348217714L249.5162515522048,-12.547452139568806z" style="fill:rgb(238,238,238); fill-opacity: 0.4"></path><path d="M263.05705063400154,16.91175324152429L263.05705063400154,24.811172836831346L258.9875067414713,17.681700802147823zM263.05705063400154,24.811172836831346L258.9875067414713,25.58112039745488L258.9875067414713,17.681700802147823z" style="fill:rgb(153,221,255); fill-opacity: 0.4"></path><path d="M258.9875067414713,17.681700802147823L258.9875067414713,25.58112039745488M258.9875067414713,25.58112039745488L394.4551582750141,34.681436481037636" style="fill:none;stroke:rgb(0,0,0);stroke-width:1;stroke-linecap:round"></path><path d="M249.5162515522048,54.99125348217714L284.3101656690926,48.4083316594109L419.77781720263545,57.50864774299365z" style="fill:rgb(238,238,238); fill-opacity: 0.4"></path><path d="M258.9875067414713,17.681700802147823L394.4551582750141,26.782016885730574M249.5162515522048,-12.547452139568803L249.5162515522048,54.99125348217714M249.5162515522048,54.99125348217714L384.9839030857476,64.09156956575988" style="fill:none;stroke:rgb(0,0,0);stroke-width:1;stroke-linecap:round"></path><path d="M419.77781720263545,-10.030057878752295L419.77781720263545,57.50864774299365L284.3101656690926,-19.13037396233505z" style="fill:rgb(238,238,238); fill-opacity: 0.4"></path><path d="M398.5247021675443,33.9114889204141L263.05705063400154,24.811172836831346L263.05705063400154,16.91175324152429z" style="fill:rgb(153,221,255); fill-opacity: 0.4"></path><path d="M249.5162515522048,-12.547452139568803L384.9839030857476,-3.447136055986055" style="fill:none;stroke:rgb(0,0,0);stroke-width:1;stroke-linecap:round"></path><path d="M258.9875067414713,25.58112039745488L263.05705063400154,24.811172836831346L398.5247021675443,33.9114889204141zM258.9875067414713,17.681700802147823L394.4551582750141,26.782016885730577L263.05705063400154,16.91175324152429zM258.9875067414713,17.681700802147823L258.9875067414713,25.58112039745488L394.4551582750141,26.782016885730577z" style="fill:rgb(153,221,255); fill-opacity: 0.4"></path><path d="M249.5162515522048,-12.547452139568806L384.9839030857476,-3.447136055986051L284.3101656690926,-19.13037396233505z" style="fill:rgb(238,238,238); fill-opacity: 0.4"></path><path d="M419.77781720263545,-10.030057878752299L419.77781720263545,57.508647742993645M419.77781720263545,57.508647742993645L384.9839030857476,64.09156956575988" style="fill:none;stroke:rgb(0,0,0);stroke-width:1;stroke-linecap:round"></path><path d="M384.9839030857476,-3.447136055986051L419.77781720263545,-10.030057878752295L284.3101656690926,-19.13037396233505z" style="fill:rgb(238,238,238); fill-opacity: 0.4"></path><path d="M419.77781720263545,-10.030057878752299L384.9839030857476,-3.447136055986055" style="fill:none;stroke:rgb(0,0,0);stroke-width:1;stroke-linecap:round"></path><path d="M249.5162515522048,-12.547452139568806L249.5162515522048,54.99125348217714L384.9839030857476,-3.447136055986051zM384.9839030857476,64.0915695657599L249.5162515522048,54.99125348217714L419.77781720263545,57.50864774299365z" style="fill:rgb(238,238,238); fill-opacity: 0.4"></path><path d="M398.5247021675443,26.01206932510705L398.5247021675443,33.9114889204141L263.05705063400154,16.91175324152429zM394.4551582750141,26.782016885730577L398.5247021675443,26.01206932510705L263.05705063400154,16.91175324152429zM394.4551582750141,34.681436481037636L258.9875067414713,25.58112039745488L398.5247021675443,33.9114889204141zM258.9875067414713,25.58112039745488L394.4551582750141,34.681436481037636L394.4551582750141,26.782016885730577z" style="fill:rgb(153,221,255); fill-opacity: 0.4"></path><path d="M384.9839030857476,64.0915695657599L419.77781720263545,57.50864774299365L419.77781720263545,-10.030057878752295z" style="fill:rgb(238,238,238); fill-opacity: 0.4"></path><path d="M591.5454033993393,69.047486053164L465.30824815820233,60.567247404439804M465.30824815820233,-6.971458217306146L465.30824815820233,60.567247404439804M465.30824815820233,60.567247404439804L430.51433404131456,67.15016922720605" style="fill:none;stroke:rgb(0,0,0);stroke-width:1;stroke-linecap:round"></path><path d="M249.5162515522048,54.99125348217714L384.9839030857476,64.0915695657599L384.9839030857476,-3.447136055986051z" style="fill:rgb(238,238,238); fill-opacity: 0.4"></path><path d="M591.5454033993393,1.5087804314180442L465.30824815820233,-6.971458217306146M465.30824815820233,-6.971458217306146L430.51433404131456,-0.3885363945399012M398.5247021675443,26.012069325107042L398.5247021675443,33.911488920414094M398.5247021675443,33.911488920414094L394.4551582750141,34.681436481037636M398.52470811143144,26.01206974483923L398.52470811143144,33.91148949709365M398.52470811143144,33.91148949709365L394.4551645423195,34.68143699652725M398.52470811143144,33.91148949709365L442.02036582405407,33.405352814227385M398.5247021675443,26.012069325107042L394.4551582750141,26.782016885730574M398.52470811143144,26.01206974483923L394.4551645423195,26.78201724427283M398.52470811143144,26.01206974483923L442.02036582405407,33.405352814227385" style="fill:none;stroke:rgb(0,0,0);stroke-width:1;stroke-linecap:round"></path><path d="M394.4551582750141,34.681436481037636L398.5247021675443,33.9114889204141L398.5247021675443,26.01206932510705z" style="fill:rgb(153,221,255); fill-opacity: 0.4"></path><path d="M398.52470396108123,26.012069445591546L398.52470396108123,33.91148904089861L394.455160068551,34.68143660152214z" style="fill:rgb(255,187,187); fill-opacity: 0.4"></path><path d="M394.4551582750141,26.782016885730577L394.4551582750141,34.681436481037636L398.5247021675443,26.01206932510705z" style="fill:rgb(153,221,255); fill-opacity: 0.4"></path><path d="M398.52470396108123,26.012069445591546L394.455160068551,34.68143660152214L394.455160068551,26.782017006215078z" style="fill:rgb(255,187,187); fill-opacity: 0.4"></path><path d="M384.9839030857476,-3.447136055986051L384.9839030857476,64.0915695657599L419.77781720263545,-10.030057878752295z" style="fill:rgb(238,238,238); fill-opacity: 0.4"></path><path d="M394.4551582750141,26.782016885730574L394.4551582750141,34.681436481037636M394.4551645423195,34.68143699652725L394.4551645423195,26.78201724427283M394.4551645423195,34.68143699652725L442.02036582405407,33.405352814227385M394.4551645423195,26.78201724427283L442.02036582405407,33.405352814227385" style="fill:none;stroke:rgb(0,0,0);stroke-width:1;stroke-linecap:round"></path><path d="M398.52470396108123,33.91148904089861L398.52470396108123,26.012069445591546L442.0203613502856,33.40535257616965zM394.455160068551,34.68143660152214L398.52470396108123,33.91148904089861L442.0203613502856,33.40535257616965z" style="fill:rgb(255,187,187); fill-opacity: 0.4"></path><path d="M465.3082481582023,-6.971458217306146L465.3082481582023,60.567247404439804L430.51433404131456,-0.3885363945399012z" style="fill:rgb(238,238,238); fill-opacity: 0.4"></path><path d="M398.52470396108123,26.012069445591546L394.455160068551,26.782017006215078L442.0203613502856,33.40535257616965zM394.455160068551,26.782017006215078L394.455160068551,34.68143660152214L442.0203613502856,33.40535257616965z" style="fill:rgb(255,187,187); fill-opacity: 0.4"></path><path d="M591.5454033993392,69.04748605316401L465.3082481582023,60.567247404439804L465.3082481582023,-6.971458217306146z" style="fill:rgb(238,238,238); fill-opacity: 0.4"></path><path d="M384.9839030857476,-3.447136055986055L384.9839030857476,64.09156956575988" style="fill:none;stroke:rgb(0,0,0);stroke-width:1;stroke-linecap:round"></path><path d="M465.3082481582023,60.567247404439804L430.51433404131456,67.15016922720605L430.51433404131456,-0.3885363945399012zM430.51433404131456,67.15016922720605L465.3082481582023,60.567247404439804L591.5454033993392,69.04748605316401zM591.5454033993392,1.508780431418048L591.5454033993392,69.04748605316401L465.3082481582023,-6.971458217306146z" style="fill:rgb(238,238,238); fill-opacity: 0.4"></path><path d="M430.51433404131456,-0.3885363945399012L430.51433404131456,67.15016922720605M430.51433404131456,67.15016922720605L556.7514892824514,75.63040787593023M430.51433404131456,-0.3885363945399012L556.7514892824514,8.09170225418429" style="fill:none;stroke:rgb(0,0,0);stroke-width:1;stroke-linecap:round"></path><path d="M430.51433404131456,-0.3885363945399012L556.7514892824514,8.091702254184293L465.3082481582023,-6.971458217306146z" style="fill:rgb(238,238,238); fill-opacity: 0.4"></path><path d="M591.5454033993393,1.5087804314180442L591.5454033993393,69.047486053164M591.5454033993393,69.047486053164L556.7514892824514,75.63040787593023" style="fill:none;stroke:rgb(0,0,0);stroke-width:1;stroke-linecap:round"></path><path d="M556.7514892824514,8.091702254184293L591.5454033993392,1.508780431418048L465.3082481582023,-6.971458217306146z" style="fill:rgb(238,238,238); fill-opacity: 0.4"></path><path d="M591.5454033993393,1.5087804314180442L556.7514892824514,8.09170225418429" style="fill:none;stroke:rgb(0,0,0);stroke-width:1;stroke-linecap:round"></path><path d="M430.51433404131456,-0.3885363945399012L430.51433404131456,67.15016922720605L556.7514892824514,8.091702254184293zM556.7514892824514,75.63040787593025L430.51433404131456,67.15016922720605L591.5454033993392,69.04748605316401zM556.7514892824514,75.63040787593025L591.5454033993392,69.04748605316401L591.5454033993392,1.508780431418048zM430.51433404131456,67.15016922720605L556.7514892824514,75.63040787593025L556.7514892824514,8.091702254184293z" style="fill:rgb(238,238,238); fill-opacity: 0.4"></path><path d="M584.3147898151204,39.252539033742494L610.1153664385531,40.985745446889744" style="fill:none;stroke:rgb(0,0,0);stroke-width:1;stroke-linecap:round"></path><path d="M556.7514892824514,8.091702254184293L556.7514892824514,75.63040787593025L591.5454033993392,1.508780431418048z" style="fill:rgb(238,238,238); fill-opacity: 0.4"></path><path d="M648.0496635389842,142.71220522047622L632.2700191338421,141.65217538938572M632.2700191338421,-59.114714782488136L632.2700191338421,141.65217538938572M632.2700191338421,141.65217538938572L622.8673761904308,143.4311319970247" style="fill:none;stroke:rgb(0,0,0);stroke-width:1;stroke-linecap:round"></path><path d="M622.8673761904308,143.43113199702466L632.2700191338421,141.6521753893857L648.0496635389842,142.71220522047622z" style="fill:rgb(238,238,238); fill-opacity: 0.4"></path><path d="M648.0496635389842,-58.054684951397626L648.0496635389842,142.71220522047622M648.0496635389842,142.71220522047622L638.647020595573,144.4911618281152" style="fill:none;stroke:rgb(0,0,0);stroke-width:1;stroke-linecap:round"></path><path d="M648.0496635389842,142.71220522047622L632.2700191338421,141.6521753893857L632.2700191338421,-59.11471478248814z" style="fill:rgb(238,238,238); fill-opacity: 0.4"></path><path d="M612.1087146467121,35.282971631959505L608.1220182303939,36.03724465659134L625.2921762170429,42.00527863109401z" style="fill:rgb(0,0,0)"></path><path d="M556.7514892824514,8.09170225418429L556.7514892824514,75.63040787593023" style="fill:none;stroke:rgb(0,0,0);stroke-width:1;stroke-linecap:round"></path><path d="M606.8900611603378,43.63017763729076L610.115366438553,47.56859510964562L625.2921762170429,42.00527863109401zM608.1220182303939,36.03724465659134L606.8900611603378,43.63017763729076L625.2921762170429,42.00527863109401z" style="fill:rgb(0,0,0)"></path><path d="M622.8673761904308,-57.33575817484916L622.8673761904308,143.4311319970247M622.8673761904308,143.4311319970247L638.647020595573,144.4911618281152" style="fill:none;stroke:rgb(0,0,0);stroke-width:1;stroke-linecap:round"></path><path d="M638.647020595573,144.4911618281152L622.8673761904308,143.43113199702466L648.0496635389842,142.71220522047622zM632.2700191338421,141.6521753893857L622.8673761904308,143.43113199702466L622.8673761904308,-57.33575817484917zM632.2700191338421,-59.11471478248814L632.2700191338421,141.6521753893857L622.8673761904308,-57.33575817484917zM648.0496635389842,-58.05468495139762L648.0496635389842,142.71220522047622L632.2700191338421,-59.11471478248814zM638.647020595573,144.4911618281152L648.0496635389842,142.71220522047622L648.0496635389842,-58.05468495139762z" style="fill:rgb(238,238,238); fill-opacity: 0.4"></path><path d="M648.0496635389842,-58.054684951397626L632.2700191338421,-59.114714782488136M632.2700191338421,-59.114714782488136L622.8673761904308,-57.33575817484916M638.647020595573,-56.27572834375865L638.647020595573,144.4911618281152" style="fill:none;stroke:rgb(0,0,0);stroke-width:1;stroke-linecap:round"></path><path d="M622.8673761904308,143.43113199702466L638.647020595573,144.4911618281152L638.647020595573,-56.275728343758644z" style="fill:rgb(238,238,238); fill-opacity: 0.4"></path><path d="M645.6248635123721,43.37116841453304L671.4254401358048,45.10437482768029M648.0496635389842,-58.054684951397626L638.647020595573,-56.27572834375865" style="fill:none;stroke:rgb(0,0,0);stroke-width:1;stroke-linecap:round"></path><path d="M622.8673761904308,-57.33575817484917L622.8673761904308,143.43113199702466L638.647020595573,-56.275728343758644zM638.647020595573,-56.275728343758644L648.0496635389842,-58.05468495139762L632.2700191338421,-59.11471478248814zM638.647020595573,-56.275728343758644L638.647020595573,144.4911618281152L648.0496635389842,-58.05468495139762z" style="fill:rgb(238,238,238); fill-opacity: 0.4"></path><path d="M709.3597372362359,146.83083460126676L693.5800928310938,145.77080477017626M693.5800928310938,-54.99608540169759L693.5800928310938,145.77080477017626M693.5800928310938,145.77080477017626L684.1774498876827,147.54976137781523" style="fill:none;stroke:rgb(0,0,0);stroke-width:1;stroke-linecap:round"></path><path d="M622.8673761904308,-57.33575817484917L638.647020595573,-56.275728343758644L632.2700191338421,-59.11471478248814z" style="fill:rgb(238,238,238); fill-opacity: 0.4"></path><path d="M622.8673761904308,-57.33575817484916L638.647020595573,-56.27572834375865" style="fill:none;stroke:rgb(0,0,0);stroke-width:1;stroke-linecap:round"></path><path d="M684.1774498876827,147.54976137781523L693.5800928310938,145.77080477017626L709.3597372362359,146.83083460126676z" style="fill:rgb(238,238,238); fill-opacity: 0.4"></path><path d="M709.3597372362359,-53.93605557060708L709.3597372362359,146.83083460126676M709.3597372362359,146.83083460126676L699.9570942928248,148.60979120890573" style="fill:none;stroke:rgb(0,0,0);stroke-width:1;stroke-linecap:round"></path><path d="M709.3597372362359,146.83083460126676L693.5800928310938,145.77080477017626L693.5800928310938,-54.9960854016976z" style="fill:rgb(238,238,238); fill-opacity: 0.4"></path><path d="M673.4187883439639,39.40160101275005L669.4320919276457,40.155874037381885L686.6022499142947,46.12390801188455zM668.2001348575897,47.7488070180813L671.4254401358048,51.68722449043616L686.6022499142947,46.12390801188455zM669.4320919276457,40.155874037381885L668.2001348575897,47.7488070180813L686.6022499142947,46.12390801188455z" style="fill:rgb(0,0,0)"></path><path d="M684.1774498876827,-53.21712879405862L684.1774498876827,147.54976137781523M684.1774498876827,147.54976137781523L699.9570942928248,148.60979120890573" style="fill:none;stroke:rgb(0,0,0);stroke-width:1;stroke-linecap:round"></path><path d="M699.9570942928248,148.60979120890573L684.1774498876827,147.54976137781523L709.3597372362359,146.83083460126676zM693.5800928310938,145.77080477017626L684.1774498876827,147.54976137781523L684.1774498876827,-53.217128794058624zM693.5800928310938,-54.9960854016976L693.5800928310938,145.77080477017626L684.1774498876827,-53.217128794058624zM709.3597372362359,-53.936055570607074L709.3597372362359,146.83083460126676L693.5800928310938,-54.9960854016976zM699.9570942928248,148.60979120890573L709.3597372362359,146.83083460126676L709.3597372362359,-53.936055570607074z" style="fill:rgb(238,238,238); fill-opacity: 0.4"></path><path d="M709.3597372362359,-53.93605557060708L693.5800928310938,-54.99608540169759M693.5800928310938,-54.99608540169759L684.1774498876827,-53.21712879405862M699.9570942928248,-52.15709896296811L699.9570942928248,148.60979120890573" style="fill:none;stroke:rgb(0,0,0);stroke-width:1;stroke-linecap:round"></path><path d="M684.1774498876827,147.54976137781523L699.9570942928248,148.60979120890573L699.9570942928248,-52.1570989629681z" style="fill:rgb(238,238,238); fill-opacity: 0.4"></path><path d="M706.9349372096239,47.489797795323575L732.7355138330565,49.223004208470826M709.3597372362359,-53.93605557060708L699.9570942928248,-52.15709896296811" style="fill:none;stroke:rgb(0,0,0);stroke-width:1;stroke-linecap:round"></path><path d="M684.1774498876827,-53.217128794058624L684.1774498876827,147.54976137781523L699.9570942928248,-52.1570989629681zM699.9570942928248,-52.1570989629681L709.3597372362359,-53.936055570607074L693.5800928310938,-54.9960854016976zM699.9570942928248,-52.1570989629681L699.9570942928248,148.60979120890573L709.3597372362359,-53.936055570607074zM684.1774498876827,-53.217128794058624L699.9570942928248,-52.1570989629681L693.5800928310938,-54.9960854016976z" style="fill:rgb(238,238,238); fill-opacity: 0.4"></path><path d="M770.6698109334877,141.51144792077383L754.8901665283455,140.45141808968333M754.8901665283455,-41.43943995962359L754.8901665283455,140.45141808968333M754.8901665283455,140.45141808968333L745.4875235849344,142.2303746973223M684.1774498876827,-53.21712879405862L699.9570942928248,-52.15709896296811" style="fill:none;stroke:rgb(0,0,0);stroke-width:1;stroke-linecap:round"></path><path d="M745.4875235849345,142.2303746973223L754.8901665283456,140.45141808968333L770.6698109334877,141.51144792077383z" style="fill:rgb(238,238,238); fill-opacity: 0.4"></path><path d="M770.6698109334877,-40.37941012853308L770.6698109334877,141.51144792077383M770.6698109334877,141.51144792077383L761.2671679900765,143.2904045284128" style="fill:none;stroke:rgb(0,0,0);stroke-width:1;stroke-linecap:round"></path><path d="M770.6698109334877,141.51144792077383L754.8901665283456,140.45141808968333L754.8901665283456,-41.4394399596236z" style="fill:rgb(238,238,238); fill-opacity: 0.4"></path><path d="M734.7288620412156,43.520230393540594L730.7421656248974,44.27450341817242L747.9123236115464,50.24253739267509zM729.5102085548414,51.86743639887184L732.7355138330565,55.8058538712267L747.9123236115464,50.24253739267509zM730.7421656248974,44.27450341817242L729.5102085548414,51.86743639887184L747.9123236115464,50.24253739267509z" style="fill:rgb(0,0,0)"></path><path d="M745.4875235849344,-39.66048335198462L745.4875235849344,142.2303746973223M745.4875235849344,142.2303746973223L761.2671679900765,143.2904045284128" style="fill:none;stroke:rgb(0,0,0);stroke-width:1;stroke-linecap:round"></path><path d="M761.2671679900765,143.2904045284128L745.4875235849345,142.2303746973223L770.6698109334877,141.51144792077383zM754.8901665283456,140.45141808968333L745.4875235849345,142.2303746973223L745.4875235849345,-39.660483351984624zM754.8901665283456,-41.4394399596236L754.8901665283456,140.45141808968333L745.4875235849345,-39.660483351984624zM770.6698109334877,-40.37941012853308L770.6698109334877,141.51144792077383L754.8901665283456,-41.4394399596236z" style="fill:rgb(238,238,238); fill-opacity: 0.4"></path><path d="M770.6698109334877,-40.37941012853308L754.8901665283455,-41.43943995962359M754.8901665283455,-41.43943995962359L745.4875235849344,-39.66048335198462" style="fill:none;stroke:rgb(0,0,0);stroke-width:1;stroke-linecap:round"></path><path d="M761.2671679900765,143.2904045284128L770.6698109334877,141.51144792077383L770.6698109334877,-40.37941012853308z" style="fill:rgb(238,238,238); fill-opacity: 0.4"></path><path d="M761.2671679900765,-38.600453520894106L761.2671679900765,143.2904045284128" style="fill:none;stroke:rgb(0,0,0);stroke-width:1;stroke-linecap:round"></path><path d="M745.4875235849345,142.2303746973223L761.2671679900765,143.2904045284128L761.2671679900765,-38.600453520894106z" style="fill:rgb(238,238,238); fill-opacity: 0.4"></path><path d="M770.6698109334877,-40.37941012853308L761.2671679900765,-38.600453520894106" style="fill:none;stroke:rgb(0,0,0);stroke-width:1;stroke-linecap:round"></path><path d="M761.2671679900765,-38.600453520894106L770.6698109334877,-40.37941012853308L754.8901665283456,-41.4394399596236zM745.4875235849345,-39.660483351984624L745.4875235849345,142.2303746973223L761.2671679900765,-38.600453520894106zM761.2671679900765,-38.600453520894106L761.2671679900765,143.2904045284128L770.6698109334877,-40.37941012853308zM745.4875235849345,-39.660483351984624L761.2671679900765,-38.600453520894106L754.8901665283456,-41.4394399596236z" style="fill:rgb(238,238,238); fill-opacity: 0.4"></path><path d="M745.4875235849344,-39.66048335198462L761.2671679900765,-38.600453520894106" style="fill:none;stroke:rgb(0,0,0);stroke-width:1;stroke-linecap:round"></path></svg>